<svg xmlns="http://www.w3.org/2000/svg" width="100" height="100" viewBox="0 0 100 100">
  <defs>
    <linearGradient id="grad" x1="0%" y1="0%" x2="100%" y2="100%">
      <stop offset="0%" style="stop-color:#5B67CA;stop-opacity:1" />
      <stop offset="100%" style="stop-color:#424D9D;stop-opacity:1" />
    </linearGradient>
  </defs>
  <rect width="100" height="100" rx="20" fill="url(#grad)" />
  <path d="M30 40 L70 40 L70 75 A10 10 0 0 1 60 85 L40 85 A10 10 0 0 1 30 75 L30 40 Z" stroke="white" stroke-width="3" fill="none" />
  <path d="M40 40 L40 25 A10 10 0 0 1 60 25 L60 40" stroke="white" stroke-width="3" fill="none" />
  <path d="M40 60 L60 60 M40 70 L60 70" stroke="white" stroke-width="3" stroke-linecap="round" />
  <circle cx="40" cy="50" r="3" fill="white" />
  <circle cx="60" cy="50" r="3" fill="white" />
</svg> 