<svg xmlns="http://www.w3.org/2000/svg" width="100" height="100" viewBox="0 0 100 100">
  <rect width="100" height="100" rx="20" fill="#FFF0E8" />
  <circle cx="50" cy="50" r="35" fill="#F98D51" />
  <path d="M40 40 C40 35 45 30 55 30 C65 30 70 35 70 40 L70 50 C70 55 65 60 60 60 L50 60" stroke="white" stroke-width="4" stroke-linecap="round" fill="none" />
  <path d="M60 60 C60 65 55 70 45 70 C35 70 30 65 30 60 L30 50 C30 45 35 40 40 40 L50 40" stroke="white" stroke-width="4" stroke-linecap="round" fill="none" />
  <circle cx="40" cy="35" r="3" fill="white" />
  <circle cx="60" cy="65" r="3" fill="white" />
</svg> 